<svg id="Capa_1" enable-background="new 0 0 512 512" height="512" viewBox="0 0 512 512" width="512" xmlns="http://www.w3.org/2000/svg" xmlns:xlink="http://www.w3.org/1999/xlink"><linearGradient id="SVGID_1_" gradientUnits="userSpaceOnUse" x1="256" x2="256" y1="512" y2="0"><stop offset="0" stop-color="#00b59c"/><stop offset="1" stop-color="#9cffac"/></linearGradient><g><g><path d="m286 286c-8.284 0-15 6.716-15 15s6.716 15 15 15 15-6.716 15-15-6.716-15-15-15zm-60-60c8.284 0 15-6.716 15-15s-6.716-15-15-15-15 6.716-15 15 6.716 15 15 15zm68.32-27.481c-6.893-4.594-16.206-2.732-20.801 4.161l-60 90c-4.595 6.893-2.732 16.206 4.161 20.801 2.557 1.705 5.447 2.521 8.307 2.521 4.847 0 9.604-2.346 12.494-6.681l60-90c4.595-6.893 2.733-16.206-4.161-20.802zm202.68 12.481h-51.444c-4.79-20.317-12.732-39.477-23.713-57.205l35.683-35.682c2.813-2.813 4.394-6.628 4.394-10.606s-1.58-7.793-4.394-10.606l-42.426-42.426c-5.857-5.858-15.355-5.858-21.213 0l-35.683 35.682c-17.73-10.981-36.89-18.923-57.204-23.713v-51.444c0-8.284-6.716-15-15-15h-60c-8.284 0-15 6.716-15 15v51.444c-20.315 4.79-39.474 12.732-57.204 23.713l-35.683-35.682c-5.857-5.858-15.355-5.858-21.213 0l-42.425 42.425c-5.858 5.858-5.858 15.355 0 21.213l35.682 35.682c-10.982 17.73-18.923 36.886-23.713 57.205h-51.444c-8.284 0-15 6.716-15 15v60c0 8.284 6.716 15 15 15h51.444c4.791 20.319 12.731 39.475 23.713 57.204l-35.682 35.68c-5.858 5.858-5.858 15.355 0 21.213l42.425 42.428c2.813 2.813 6.628 4.394 10.607 4.394 3.978 0 7.793-1.581 10.606-4.394l35.682-35.682c17.73 10.982 36.886 18.922 57.205 23.713v51.444c0 8.284 6.716 15 15 15h60c8.284 0 15-6.716 15-15v-51.444c20.318-4.79 39.474-12.731 57.204-23.713l35.683 35.682c2.813 2.813 6.628 4.394 10.606 4.394s7.794-1.581 10.606-4.394l42.426-42.427c2.813-2.813 4.394-6.628 4.394-10.607 0-3.978-1.58-7.793-4.394-10.606l-35.683-35.68c10.98-17.728 18.923-36.887 23.713-57.204h51.445c8.284 0 15-6.716 15-15v-60c0-8.285-6.716-15.001-15-15.001zm-15 60h-48.71c-7.32 0-13.572 5.285-14.791 12.503-4.17 24.702-13.644 47.555-28.159 67.922-4.252 5.966-3.571 14.131 1.609 19.312l33.757 33.754-21.213 21.213-33.757-33.756c-5.181-5.18-13.345-5.861-19.312-1.609-20.369 14.516-43.221 23.99-67.922 28.159-7.219 1.218-12.503 7.47-12.503 14.791v48.711h-30v-48.71c0-7.321-5.285-13.572-12.503-14.791-24.701-4.17-47.553-13.644-67.922-28.159-5.966-4.253-14.131-3.572-19.312 1.609l-33.756 33.756-21.212-21.213 33.756-33.754c5.181-5.181 5.861-13.346 1.609-19.312-14.515-20.369-23.989-43.221-28.159-67.922-1.218-7.219-7.469-12.504-14.79-12.504h-48.71v-30h48.71c7.321 0 13.572-5.285 14.791-12.503 4.17-24.701 13.644-47.553 28.159-67.922 4.252-5.966 3.572-14.131-1.609-19.312l-33.756-33.756 21.212-21.212 33.756 33.756c5.18 5.181 13.345 5.862 19.311 1.609 20.372-14.516 43.225-23.99 67.922-28.16 7.219-1.218 12.504-7.469 12.504-14.79v-48.71h30v48.71c0 7.321 5.284 13.572 12.503 14.791 24.697 4.169 47.55 13.644 67.923 28.16 5.967 4.253 14.132 3.571 19.311-1.609l33.757-33.756 21.213 21.212-33.757 33.756c-5.181 5.18-5.861 13.345-1.609 19.312 14.516 20.368 23.989 43.22 28.159 67.922 1.218 7.217 7.47 12.502 14.79 12.502h48.71zm-226-150c-74.439 0-135 60.561-135 135s60.561 135 135 135 135-60.561 135-135-60.561-135-135-135zm0 240c-57.897 0-105-47.103-105-105s47.103-105 105-105 105 47.103 105 105-47.103 105-105 105z" fill="url(#SVGID_1_)"/></g></g></svg>